<svg xmlns="http://www.w3.org/2000/svg"
  xmlns:xlink="http://www.w3.org/1999/xlink"
  version="1.1"
  width="14px"
  height="14px"
  icongroup="editor"
  iconlicense="CC0"
  wikicommons="https://upload.wikimedia.org/wikipedia/commons/1/1d/Paint_Can_-_The_Noun_Project.svg"
  viewBox="0 0 100 100"
  enable-background="new 0 0 100 100"
  xml:space="preserve"
  sourcefilename="Paint_Can_-_The_Noun_Project.svg"
  >
<g><path  style="fill:currentColor;" d="M68.178,59.013c-0.037-0.292-0.092-0.594-0.158-0.906c-0.039-0.187-0.088-0.379-0.137-0.571   c-0.047-0.177-0.098-0.357-0.152-0.538c-0.111-0.373-0.238-0.754-0.383-1.147c-0.044-0.117-0.086-0.233-0.133-0.351   c-0.571-1.476-1.377-3.077-2.387-4.764C64.602,24.449,55.621,4.003,44.188,4.003c-5.855,0-11.199,5.206-15.048,14.659   c-1.73,4.249-3.084,9.165-4.028,14.498L1.014,57.257c-3.373,3.372,1.946,14.159,11.878,24.094   c9.935,9.932,20.721,15.249,24.094,11.876l30.257-30.255c0.189-0.189,0.342-0.409,0.477-0.644c0.027-0.045,0.055-0.088,0.078-0.135   c0.117-0.23,0.212-0.478,0.283-0.744c0.018-0.067,0.029-0.136,0.045-0.206c0.055-0.253,0.096-0.521,0.111-0.804   c0.006-0.082,0.006-0.166,0.008-0.249c0.004-0.251-0.008-0.514-0.029-0.785C68.203,59.275,68.193,59.147,68.178,59.013z    M25.576,58.699c-3.276,0-5.935-2.656-5.935-5.934c0-2.595,1.668-4.795,3.989-5.601c-0.06,1.515-0.09,3.044-0.09,4.585   c0,1.126,0.912,2.038,2.038,2.038c1.125,0,2.038-0.912,2.038-2.038c0-1.519,0.031-3.027,0.09-4.519   c2.225,0.856,3.807,3.009,3.807,5.534C31.512,56.043,28.854,58.699,25.576,58.699z M32.177,26.396   c-0.02,0.01-0.038,0.02-0.058,0.027c-0.314,0.155-0.607,0.334-0.849,0.576l-0.847,0.849c0.708-2.737,1.537-5.307,2.491-7.649   c3.136-7.704,7.245-12.12,11.273-12.12c7.255,0,14.975,14.413,16.357,36.559c-0.003-0.004-0.006-0.007-0.008-0.012   c-0.175-0.216-0.359-0.433-0.541-0.649c-0.284-0.345-0.572-0.691-0.87-1.038c-0.203-0.236-0.411-0.473-0.622-0.711   c-0.315-0.359-0.639-0.717-0.97-1.076c-0.183-0.2-0.364-0.4-0.552-0.599c-0.525-0.56-1.062-1.118-1.618-1.674   c-1.139-1.139-2.288-2.209-3.437-3.22c-0.005-0.005-0.01-0.01-0.015-0.014c-0.087-0.077-0.173-0.151-0.261-0.225   c-0.613-0.535-1.225-1.052-1.834-1.546c-0.074-0.062-0.148-0.124-0.222-0.184c-0.002,0-0.004-0.001-0.005-0.003   c-0.576-0.462-1.149-0.911-1.719-1.338c-0.026-0.018-0.052-0.036-0.077-0.056c-0.006-0.004-0.011-0.007-0.017-0.011   c-1.173-0.876-2.325-1.663-3.45-2.369c-0.105-0.068-0.212-0.134-0.316-0.199c-0.001,0-0.001,0-0.002-0.001   c-0.392-0.241-0.777-0.469-1.158-0.688c0,0-0.001-0.001-0.002-0.002c-0.145-0.082-0.29-0.17-0.434-0.25   c-0.001,0-0.004-0.001-0.004-0.002c-0.534-0.296-1.057-0.573-1.568-0.826c-0.04-0.017-0.08-0.035-0.119-0.054   c-0.005-0.002-0.009-0.005-0.014-0.006c-0.437-0.213-0.866-0.409-1.286-0.586c-0.001-0.001-0.002-0.002-0.005-0.004   c-0.11-0.045-0.218-0.088-0.326-0.131c-0.367-0.149-0.726-0.285-1.077-0.408c-0.001,0-0.004-0.001-0.006-0.002   c-0.151-0.052-0.302-0.103-0.451-0.151c-0.325-0.103-0.638-0.189-0.946-0.266c-0.114-0.03-0.232-0.064-0.342-0.089   c0,0-0.001,0-0.001-0.001c-0.752-0.166-1.452-0.258-2.086-0.258c-0.104,0-0.197,0.015-0.297,0.02   c-0.067,0.005-0.135,0.01-0.202,0.015c0,0-0.001,0-0.004,0c-0.562,0.046-1.065,0.17-1.505,0.375H32.177z M65.801,61.532   c-0.346,0.344-0.992,0.416-1.475,0.416c-3.585,0-11.289-3.847-19.736-12.296c-4.65-4.65-8.395-9.61-10.544-13.965   c-1.957-3.97-2.08-6.5-1.335-7.246c0.344-0.345,0.992-0.417,1.477-0.417c3.584,0,11.288,3.849,19.736,12.295   c0.627,0.628,1.236,1.261,1.828,1.897c0.097,0.104,0.188,0.209,0.283,0.315c0.508,0.552,1.006,1.107,1.485,1.664   c0.054,0.062,0.104,0.123,0.157,0.186c0.523,0.612,1.031,1.224,1.516,1.834c0.008,0.011,0.018,0.022,0.025,0.034   c0.518,0.653,1.014,1.306,1.485,1.952c1.293,1.777,2.4,3.523,3.288,5.195c0.159,0.297,0.329,0.598,0.473,0.891   C66.422,58.257,66.547,60.786,65.801,61.532z">
</path>
<path  style="fill:currentColor;" d="M99.936,68.014c-0.328-3.007-1.951-9.482-7.924-13.984c-6.295-4.645-12.09-4.256-15.127-3.925   c4.162,5.425,3.467,11.265,1.963,14.82c-0.705,1.671-1.008,3.538-0.797,5.473c0.658,6.042,6.088,10.407,12.133,9.751   C96.227,79.489,100.592,74.057,99.936,68.014z"></path></g></svg>
