<svg
  xmlns="http://www.w3.org/2000/svg"
  xmlns:xlink="http://www.w3.org/1999/xlink"
  version="1.0"
  x="0px"
  y="0px"
  viewBox="0 0 24 24"
  wikicommons="https://upload.wikimedia.org/wikipedia/commons/f/fd/Brush_-_The_Noun_Project.svg"
  width="14px"
  height="14px"
  icongroup="editor"
  enable-background="new 0 0 24 24"
  xml:space="preserve"
  iconlicense="CC0">
  <rect x="10.8" y="7.9" transform="matrix(0.7071 0.7071 -0.7071 0.7071 11.7586 -5.5533)" fill="none" stroke="#111111" stroke-width="2" stroke-linejoin="round" stroke-miterlimit="10" width="3.6" height="7"></rect>
  <path fill="none" stroke="#111111" stroke-width="2" stroke-linejoin="round" stroke-miterlimit="10" d="M10.1,18.1  c1.2-1.2,1.2-3.1,0-4.2s-3.1-1.2-4.2,0S3,21,3,21S8.9,19.3,10.1,18.1z"></path>
  <path style="fill:#111111;" d="M10.8,18.1c0.8-0.8,0.8-2.2,0-3s-2.2-0.8-3,0s-2,5-2,5S9.9,18.9,10.8,18.1z"></path>
  <path style="fill:#111111;" d="M21.7,4.9l-2.6-2.6c-0.4-0.4-1-0.4-1.4,0l-5.3,5.3l4,4l5.3-5.3C22.1,5.9,22.1,5.2,21.7,4.9z"></path>
</svg>
