<?xml version="1.0" encoding="UTF-8" standalone="no"?>
<svg
   xmlns:ooo="http://xml.openoffice.org/svg/export"
   xmlns:dc="http://purl.org/dc/elements/1.1/"
   xmlns:cc="http://creativecommons.org/ns#"
   xmlns:rdf="http://www.w3.org/1999/02/22-rdf-syntax-ns#"
   xmlns:svg="http://www.w3.org/2000/svg"
   xmlns="http://www.w3.org/2000/svg"
   xmlns:sodipodi="http://sodipodi.sourceforge.net/DTD/sodipodi-0.dtd"
   xmlns:inkscape="http://www.inkscape.org/namespaces/inkscape"
   version="1.2"
   width="14px"
   height="14px"
   viewBox="0 0 494 494"
   preserveAspectRatio="xMidYMid"
   fill-rule="evenodd"
   stroke-width="28.222"
   stroke-linejoin="round"
   icons4menu="https://niebert.github.io/img/icons-svg/i4m-carat-uu.svg"
   xml:space="preserve"
   sodipodi:docname="i4m-metronome2.svg"
   id="svg524"
   inkscape:version="1.0.2 (e86c8708, 2021-01-15)"><metadata
   id="metadata528"><rdf:RDF><cc:Work
       rdf:about=""><dc:format>image/svg+xml</dc:format><dc:type
         rdf:resource="http://purl.org/dc/dcmitype/StillImage" /><dc:title></dc:title></cc:Work></rdf:RDF></metadata><sodipodi:namedview
   pagecolor="#ffffff"
   bordercolor="#666666"
   borderopacity="1"
   objecttolerance="10"
   gridtolerance="10"
   guidetolerance="10"
   inkscape:pageopacity="0"
   inkscape:pageshadow="2"
   inkscape:window-width="718"
   inkscape:window-height="480"
   id="namedview526"
   showgrid="false"
   inkscape:zoom="43.571429"
   inkscape:cx="7"
   inkscape:cy="7"
   inkscape:window-x="0"
   inkscape:window-y="25"
   inkscape:window-maximized="0"
   inkscape:current-layer="svg524" />

 <defs
   class="ClipPathGroup"
   id="defs415">
  <clipPath
   id="presentation_clip_path"
   clipPathUnits="userSpaceOnUse">
   <rect
   x="0"
   y="0"
   width="494"
   height="494"
   id="rect409" />
  </clipPath>
  <clipPath
   id="presentation_clip_path_shrink"
   clipPathUnits="userSpaceOnUse">
   <rect
   x="0"
   y="0"
   width="494"
   height="494"
   id="rect412" />
  </clipPath>
 </defs>
 <defs
   class="TextShapeIndex"
   id="defs419">
  <g
   ooo:slide="id1"
   ooo:id-list="id3 id4 id5 id6 id7 id8 id9 id10"
   id="g417" />
 </defs>
 <defs
   class="EmbeddedBulletChars"
   id="defs451">
  <g
   id="bullet-char-template-57356"
   transform="scale(0.00048828125,-0.00048828125)">
   <path
   fill="#000"
   d="M 580,1141 L 1163,571 580,0 -4,571 580,1141 Z"
   id="path421" />
  </g>
  <g
   id="bullet-char-template-57354"
   transform="scale(0.00048828125,-0.00048828125)">
   <path
   fill="#000"
   d="M 8,1128 L 1137,1128 1137,0 8,0 8,1128 Z"
   id="path424" />
  </g>
  <g
   id="bullet-char-template-10146"
   transform="scale(0.00048828125,-0.00048828125)">
   <path
   fill="#000"
   d="M 174,0 L 602,739 174,1481 1456,739 174,0 Z M 1358,739 L 309,1346 659,739 1358,739 Z"
   id="path427" />
  </g>
  <g
   id="bullet-char-template-10132"
   transform="scale(0.00048828125,-0.00048828125)">
   <path
   fill="#000"
   d="M 2015,739 L 1276,0 717,0 1260,543 174,543 174,936 1260,936 717,1481 1274,1481 2015,739 Z"
   id="path430" />
  </g>
  <g
   id="bullet-char-template-10007"
   transform="scale(0.00048828125,-0.00048828125)">
   <path
   fill="#000"
   d="M 0,-2 C -7,14 -16,27 -25,37 L 356,567 C 262,823 215,952 215,954 215,979 228,992 255,992 264,992 276,990 289,987 310,991 331,999 354,1012 L 381,999 492,748 772,1049 836,1024 860,1049 C 881,1039 901,1025 922,1006 886,937 835,863 770,784 769,783 710,716 594,584 L 774,223 C 774,196 753,168 711,139 L 727,119 C 717,90 699,76 672,76 641,76 570,178 457,381 L 164,-76 C 142,-110 111,-127 72,-127 30,-127 9,-110 8,-76 1,-67 -2,-52 -2,-32 -2,-23 -1,-13 0,-2 Z"
   id="path433" />
  </g>
  <g
   id="bullet-char-template-10004"
   transform="scale(0.00048828125,-0.00048828125)">
   <path
   fill="#000"
   d="M 285,-33 C 182,-33 111,30 74,156 52,228 41,333 41,471 41,549 55,616 82,672 116,743 169,778 240,778 293,778 328,747 346,684 L 369,508 C 377,444 397,411 428,410 L 1163,1116 C 1174,1127 1196,1133 1229,1133 1271,1133 1292,1118 1292,1087 L 1292,965 C 1292,929 1282,901 1262,881 L 442,47 C 390,-6 338,-33 285,-33 Z"
   id="path436" />
  </g>
  <g
   id="bullet-char-template-9679"
   transform="scale(0.00048828125,-0.00048828125)">
   <path
   fill="#000"
   d="M 813,0 C 632,0 489,54 383,161 276,268 223,411 223,592 223,773 276,916 383,1023 489,1130 632,1184 813,1184 992,1184 1136,1130 1245,1023 1353,916 1407,772 1407,592 1407,412 1353,268 1245,161 1136,54 992,0 813,0 Z"
   id="path439" />
  </g>
  <g
   id="bullet-char-template-8226"
   transform="scale(0.00048828125,-0.00048828125)">
   <path
   fill="#000"
   d="M 346,457 C 273,457 209,483 155,535 101,586 74,649 74,723 74,796 101,859 155,911 209,963 273,989 346,989 419,989 480,963 531,910 582,859 608,796 608,723 608,648 583,586 532,535 482,483 420,457 346,457 Z"
   id="path442" />
  </g>
  <g
   id="bullet-char-template-8211"
   transform="scale(0.00048828125,-0.00048828125)">
   <path
   fill="#000"
   d="M -4,459 L 1135,459 1135,606 -4,606 -4,459 Z"
   id="path445" />
  </g>
  <g
   id="bullet-char-template-61548"
   transform="scale(0.00048828125,-0.00048828125)">
   <path
   fill="#000"
   d="M 173,740 C 173,903 231,1043 346,1159 462,1274 601,1332 765,1332 928,1332 1067,1274 1183,1159 1299,1043 1357,903 1357,740 1357,577 1299,437 1183,322 1067,206 928,148 765,148 601,148 462,206 346,322 231,437 173,577 173,740 Z"
   id="path448" />
  </g>
 </defs>
 <g
   id="g456">
  <g
   id="id2"
   class="Master_Slide">
   <g
   id="bg-id2"
   class="Background" />
   <g
   id="bo-id2"
   class="BackgroundObjects" />
  </g>
 </g>
 <g
   class="SlideGroup"
   id="g522">
  <g
   id="g520">
   <g
   id="container-id1">
    <g
   id="id1"
   class="Slide"
   clip-path="url(#presentation_clip_path)">
     <g
   class="Page"
   id="g516">
      <g
   class="Group"
   id="g514">
       <g
   class="com.sun.star.drawing.LineShape"
   id="g463">
        <g
   id="id3">
         <rect
   class="BoundingBox"
   stroke="none"
   fill="none"
   x="264"
   y="141"
   width="175"
   height="331"
   id="rect458" />
         <path
   fill="none"
   stroke="rgb(0,0,0)"
   stroke-width="60"
   stroke-linejoin="round"
   stroke-linecap="round"
   d="M 408,441 L 294,171"
   id="path460" />
        </g>
       </g>
       <g
   class="com.sun.star.drawing.LineShape"
   id="g470">
        <g
   id="id4">
         <rect
   class="BoundingBox"
   stroke="none"
   fill="none"
   x="49"
   y="139"
   width="193"
   height="326"
   id="rect465" />
         <path
   fill="none"
   stroke="rgb(0,0,0)"
   stroke-width="60"
   stroke-linejoin="round"
   stroke-linecap="round"
   d="M 79,434 L 211,169"
   id="path467" />
        </g>
       </g>
       <g
   class="com.sun.star.drawing.LineShape"
   id="g477">
        <g
   id="id5">
         <rect
   class="BoundingBox"
   stroke="none"
   fill="none"
   x="183"
   y="134"
   width="128"
   height="65"
   id="rect472" />
         <path
   fill="none"
   stroke="rgb(0,0,0)"
   stroke-width="60"
   stroke-linejoin="round"
   stroke-linecap="round"
   d="M 280,168 L 213,164"
   id="path474" />
        </g>
       </g>
       <g
   class="com.sun.star.drawing.OpenBezierShape"
   id="g484">
        <g
   id="id6">
         <rect
   class="BoundingBox"
   stroke="none"
   fill="none"
   x="45"
   y="407"
   width="384"
   height="68"
   id="rect479" />
         <path
   fill="none"
   stroke="rgb(0,0,0)"
   stroke-width="60"
   stroke-linejoin="round"
   stroke-linecap="round"
   d="M 75,438 C 159,436 310,447 398,443"
   id="path481" />
        </g>
       </g>
       <g
   class="com.sun.star.drawing.LineShape"
   id="g491">
        <g
   id="id7">
         <rect
   class="BoundingBox"
   stroke="none"
   fill="none"
   x="208"
   y="12"
   width="187"
   height="351"
   id="rect486" />
         <path
   fill="none"
   stroke="rgb(0,0,0)"
   stroke-width="60"
   stroke-linejoin="round"
   stroke-linecap="round"
   d="M 238,332 L 364,42"
   id="path488" />
        </g>
       </g>
       <g
   class="com.sun.star.drawing.LineShape"
   id="g498">
        <g
   id="id8">
         <rect
   class="BoundingBox"
   stroke="none"
   fill="none"
   x="281"
   y="54"
   width="126"
   height="92"
   id="rect493" />
         <path
   fill="none"
   stroke="rgb(0,0,0)"
   stroke-width="60"
   stroke-linejoin="round"
   stroke-linecap="round"
   d="M 376,115 L 311,84"
   id="path495" />
        </g>
       </g>
       <g
   class="com.sun.star.drawing.LineShape"
   id="g505">
        <g
   id="id9">
         <rect
   class="BoundingBox"
   stroke="none"
   fill="none"
   x="291"
   y="29"
   width="126"
   height="92"
   id="rect500" />
         <path
   fill="none"
   stroke="rgb(0,0,0)"
   stroke-width="60"
   stroke-linejoin="round"
   stroke-linecap="round"
   d="M 386,90 L 321,59"
   id="path502" />
        </g>
       </g>
       <g
   class="com.sun.star.drawing.LineShape"
   id="g512">
        <g
   id="id10">
         <rect
   class="BoundingBox"
   stroke="none"
   fill="none"
   x="284"
   y="40"
   width="131"
   height="92"
   id="rect507" />
         <path
   fill="none"
   stroke="rgb(0,0,0)"
   stroke-width="60"
   stroke-linejoin="round"
   stroke-linecap="round"
   d="M 384,101 L 314,70"
   id="path509" />
        </g>
       </g>
      </g>
     </g>
    </g>
   </g>
  </g>
 </g>
</svg>
