<?xml version="1.0" encoding="UTF-8" standalone="no"?>
<svg
   xmlns:dc="http://purl.org/dc/elements/1.1/"
   xmlns:cc="http://creativecommons.org/ns#"
   xmlns:rdf="http://www.w3.org/1999/02/22-rdf-syntax-ns#"
   xmlns:svg="http://www.w3.org/2000/svg"
   xmlns="http://www.w3.org/2000/svg"
   xmlns:sodipodi="http://sodipodi.sourceforge.net/DTD/sodipodi-0.dtd"
   xmlns:inkscape="http://www.inkscape.org/namespaces/inkscape"
   version="1.1"
   x="0px"
   y="0px"
   viewBox="0 0 50 50"
   enable-background="new 0 0 50 50"
   xml:space="preserve"
   width="14px"
   height="14px"
   icongroup="device"
 	 iconlicense="CC0"
   wikicommons="https://upload.wikimedia.org/wikipedia/commons/b/b7/Smart_phone_%28448965%29_-_The_Noun_Project.svg"
   sodipodi:docname="wc_cc0_smartphone-white.svg"
   id="svg128"
   inkscape:version="1.0.2 (e86c8708, 2021-01-15)"><metadata
   id="metadata134"><rdf:RDF><cc:Work
       rdf:about=""><dc:format>image/svg+xml</dc:format><dc:type
         rdf:resource="http://purl.org/dc/dcmitype/StillImage" /></cc:Work></rdf:RDF></metadata><defs
   id="defs132" /><sodipodi:namedview
   pagecolor="#ffffff"
   bordercolor="#666666"
   borderopacity="1"
   objecttolerance="10"
   gridtolerance="10"
   guidetolerance="10"
   inkscape:pageopacity="0"
   inkscape:pageshadow="2"
   inkscape:window-width="722"
   inkscape:window-height="480"
   id="namedview130"
   showgrid="false"
   inkscape:zoom="43.571429"
   inkscape:cx="6.8852459"
   inkscape:cy="5.0721311"
   inkscape:window-x="0"
   inkscape:window-y="25"
   inkscape:window-maximized="0"
   inkscape:current-layer="svg128" />
  &gt;<g
   id="g126"
   style="fill:#f2f2f2">
  <path
   fill="#EEE"
   d="M34.882,48.462H14.957c-3.15,0-5.713-2.562-5.713-5.713V8.673c0-3.15,2.562-5.712,5.713-5.712h19.925   c3.15,0,5.712,2.562,5.712,5.712v34.076C40.594,45.899,38.032,48.462,34.882,48.462z M14.957,6.906   c-0.975,0-1.768,0.792-1.768,1.767v34.076c0,0.976,0.793,1.769,1.768,1.769h19.925c0.975,0,1.768-0.793,1.768-1.769V8.673   c0-0.975-0.793-1.767-1.768-1.767H14.957z"
   id="path118"
   style="fill:#f2f2f2" /><rect
   x="11.217"
   y="9.336"
   width="27.404"
   height="3.945"
   id="rect120"
   style="fill:#f2f2f2" />
  <rect
   fill="#EEE"
   x="11.217"
   y="34.731"
   width="27.404"
   height="3.945"
   id="rect122"
   style="fill:#f2f2f2" />
  <circle
   fill="#EEE"
   cx="24.92"
   cy="41.655"
   r="1.691"
   id="circle124"
   style="fill:#f2f2f2" />
  </g></svg>
